Stretch Light Narrow Cy Sc FullChartSet vv(14.4-0.0)-(84.5-100.0)-0.0-0.0-(0.0-0.0).ufo
<glyph name="a-cy.sc" format="1">
  <advance width="1134"/>
  <outline>
    <contour>
      <point x="88" y="98" type="line"/>
      <point x="-14" y="80" type="line"/>
      <point x="-14" y="0" type="line"/>
      <point x="365" y="0" type="line"/>
      <point x="365" y="80" type="line"/>
      <point x="224" y="98" type="line"/>
      <point x="304" y="364" type="line"/>
      <point x="786" y="364" type="line"/>
      <point x="866" y="96" type="line"/>
      <point x="728" y="80" type="line"/>
      <point x="728" y="0" type="line"/>
      <point x="1148" y="0" type="line"/>
      <point x="1148" y="80" type="line"/>
      <point x="1045" y="96" type="line"/>
      <point x="651" y="1304" type="line"/>
      <point x="487" y="1304" type="line"/>
    </contour>
    <contour>
      <point x="757" y="460" type="line"/>
      <point x="333" y="460" type="line"/>
      <point x="505" y="1026" type="line"/>
      <point x="546" y="1190" type="line"/>
      <point x="585" y="1030" type="line"/>
    </contour>
    <contour>
      <point x="552" y="0" type="move" name="bottom"/>
    </contour>
    <contour>
      <point x="528" y="-144" type="move" name="mark0"/>
    </contour>
    <contour>
      <point x="1013" y="18" type="move" name="ogonek"/>
    </contour>
    <contour>
      <point x="562" y="1272" type="move" name="top"/>
    </contour>
  </outline>
</glyph>
<glyph name="chedescender-cy.sc" format="1">
  <advance width="1128"/>
  <outline>
    <contour>
      <point x="1086" y="98" type="curve"/>
      <point x="902" y="98" type="line"/>
      <point x="902" y="1192" type="line"/>
      <point x="1046" y="1210" type="line"/>
      <point x="1046" y="1292" type="line"/>
      <point x="595" y="1292" type="line"/>
      <point x="595" y="1210" type="line"/>
      <point x="742" y="1192" type="line"/>
      <point x="742" y="666" type="line"/>
      <point x="696" y="638"/>
      <point x="584" y="612"/>
      <point x="499" y="612" type="curve" smooth="yes"/>
      <point x="295" y="612"/>
      <point x="272" y="668"/>
      <point x="272" y="948" type="curve" smooth="yes"/>
      <point x="272" y="1190" type="line"/>
      <point x="413" y="1210" type="line"/>
      <point x="413" y="1292" type="line"/>
      <point x="12" y="1292" type="line"/>
      <point x="12" y="1210" type="line"/>
      <point x="111" y="1190" type="line"/>
      <point x="111" y="896" type="line" smooth="yes"/>
      <point x="111" y="636"/>
      <point x="177" y="500"/>
      <point x="425" y="500" type="curve" smooth="yes"/>
      <point x="523" y="500"/>
      <point x="661" y="526"/>
      <point x="742" y="574" type="curve"/>
      <point x="742" y="98" type="line"/>
      <point x="572" y="80" type="line"/>
      <point x="572" y="0" type="line"/>
      <point x="924" y="0" type="line"/>
      <point x="928" y="-14"/>
      <point x="943" y="-282"/>
      <point x="943" y="-320" type="curve"/>
      <point x="1044" y="-320" type="line"/>
      <point x="1057" y="-196"/>
      <point x="1074" y="-38"/>
    </contour>
  </outline>
</glyph>
<glyph name="chedieresis-cy.sc" format="1">
  <advance width="1114"/>
  <outline>
    <contour>
      <point x="695" y="1486" type="curve"/>
      <point x="772" y="1486"/>
      <point x="806" y="1546"/>
      <point x="806" y="1616" type="curve" smooth="yes"/>
      <point x="806" y="1674"/>
      <point x="773" y="1732"/>
      <point x="710" y="1732" type="curve" smooth="yes"/>
      <point x="639" y="1732"/>
      <point x="604" y="1666"/>
      <point x="604" y="1600" type="curve" smooth="yes"/>
      <point x="604" y="1536"/>
      <point x="639" y="1486"/>
    </contour>
    <contour>
      <point x="320" y="1486" type="curve" smooth="yes"/>
      <point x="396" y="1486"/>
      <point x="430" y="1546"/>
      <point x="430" y="1616" type="curve" smooth="yes"/>
      <point x="430" y="1674"/>
      <point x="397" y="1732"/>
      <point x="334" y="1732" type="curve"/>
      <point x="262" y="1732"/>
      <point x="229" y="1666"/>
      <point x="229" y="1600" type="curve" smooth="yes"/>
      <point x="229" y="1536"/>
      <point x="262" y="1486"/>
    </contour>
    <contour>
      <point x="740" y="574" type="curve"/>
      <point x="740" y="98" type="line"/>
      <point x="570" y="80" type="line"/>
      <point x="570" y="0" type="line"/>
      <point x="1046" y="0" type="line"/>
      <point x="1046" y="80" type="line"/>
      <point x="901" y="98" type="line"/>
      <point x="901" y="1192" type="line"/>
      <point x="1044" y="1210" type="line"/>
      <point x="1044" y="1292" type="line"/>
      <point x="593" y="1292" type="line"/>
      <point x="593" y="1210" type="line"/>
      <point x="740" y="1192" type="line"/>
      <point x="740" y="666" type="line"/>
      <point x="695" y="638"/>
      <point x="582" y="612"/>
      <point x="498" y="612" type="curve" smooth="yes"/>
      <point x="294" y="612"/>
      <point x="270" y="668"/>
      <point x="270" y="948" type="curve" smooth="yes"/>
      <point x="270" y="1190" type="line"/>
      <point x="412" y="1210" type="line"/>
      <point x="412" y="1292" type="line"/>
      <point x="10" y="1292" type="line"/>
      <point x="10" y="1210" type="line"/>
      <point x="110" y="1190" type="line"/>
      <point x="110" y="896" type="line" smooth="yes"/>
      <point x="110" y="636"/>
      <point x="175" y="500"/>
      <point x="423" y="500" type="curve" smooth="yes"/>
      <point x="521" y="500"/>
      <point x="660" y="526"/>
    </contour>
  </outline>
</glyph>
<glyph name="eldescender-cy.sc" format="1">
  <advance width="1222"/>
  <outline>
    <contour>
      <point x="1163" y="98" type="curve"/>
      <point x="974" y="98" type="line"/>
      <point x="974" y="1192" type="line"/>
      <point x="1125" y="1210" type="line"/>
      <point x="1125" y="1292" type="line"/>
      <point x="200" y="1292" type="line"/>
      <point x="200" y="1210" type="line"/>
      <point x="384" y="1192" type="line"/>
      <point x="384" y="1044" type="line" smooth="yes"/>
      <point x="384" y="588"/>
      <point x="338" y="324"/>
      <point x="259" y="196" type="curve"/>
      <point x="233" y="150"/>
      <point x="205" y="130"/>
      <point x="163" y="130" type="curve" smooth="yes"/>
      <point x="100" y="130"/>
      <point x="64" y="134"/>
      <point x="42" y="138" type="curve"/>
      <point x="52" y="0" type="line"/>
      <point x="74" y="-4"/>
      <point x="116" y="-10"/>
      <point x="167" y="-10" type="curve" smooth="yes"/>
      <point x="244" y="-10"/>
      <point x="301" y="28"/>
      <point x="348" y="114" type="curve" smooth="yes"/>
      <point x="435" y="272"/>
      <point x="481" y="602"/>
      <point x="481" y="1028" type="curve" smooth="yes"/>
      <point x="481" y="1192" type="line"/>
      <point x="815" y="1192" type="line"/>
      <point x="814" y="98" type="line"/>
      <point x="647" y="80" type="line"/>
      <point x="647" y="0" type="line"/>
      <point x="1001" y="0" type="line"/>
      <point x="1005" y="-14"/>
      <point x="1021" y="-278"/>
      <point x="1021" y="-320" type="curve"/>
      <point x="1121" y="-320" type="line"/>
      <point x="1124" y="-314"/>
      <point x="1163" y="80"/>
    </contour>
  </outline>
</glyph>
<glyph name="em-cy.sc" format="1">
  <advance width="1602"/>
  <outline>
    <contour>
      <point x="149" y="96" type="line"/>
      <point x="14" y="80" type="line"/>
      <point x="14" y="0" type="line"/>
      <point x="431" y="0" type="line"/>
      <point x="431" y="80" type="line"/>
      <point x="269" y="98" type="line"/>
      <point x="336" y="884" type="line"/>
      <point x="375" y="1226" type="line"/>
      <point x="465" y="894" type="line"/>
      <point x="728" y="60" type="line"/>
      <point x="824" y="60" type="line"/>
      <point x="1103" y="980" type="line"/>
      <point x="1172" y="1226" type="line"/>
      <point x="1207" y="884" type="line"/>
      <point x="1278" y="98" type="line"/>
      <point x="1129" y="80" type="line"/>
      <point x="1129" y="0" type="line"/>
      <point x="1589" y="0" type="line"/>
      <point x="1589" y="80" type="line"/>
      <point x="1445" y="98" type="line"/>
      <point x="1316" y="1192" type="line"/>
      <point x="1503" y="1210" type="line"/>
      <point x="1503" y="1292" type="line"/>
      <point x="1082" y="1292" type="line"/>
      <point x="850" y="500" type="line"/>
      <point x="799" y="274" type="line"/>
      <point x="743" y="500" type="line"/>
      <point x="513" y="1292" type="line"/>
      <point x="90" y="1292" type="line"/>
      <point x="90" y="1210" type="line"/>
      <point x="278" y="1192" type="line"/>
    </contour>
    <contour>
      <point x="811" y="0" type="move" name="bottom"/>
    </contour>
    <contour>
      <point x="782" y="-144" type="move" name="mark0"/>
    </contour>
    <contour>
      <point x="811" y="1272" type="move" name="top"/>
    </contour>
  </outline>
</glyph>
<glyph name="emtail-cy.sc" format="1">
  <advance width="1632"/>
  <outline>
    <contour>
      <point x="1650" y="0" type="curve"/>
      <point x="1650" y="94" type="line"/>
      <point x="1484" y="94" type="line"/>
      <point x="1337" y="1192" type="line"/>
      <point x="1502" y="1210" type="line"/>
      <point x="1502" y="1292" type="line"/>
      <point x="1111" y="1292" type="line"/>
      <point x="867" y="428" type="line"/>
      <point x="821" y="204" type="line"/>
      <point x="771" y="428" type="line"/>
      <point x="509" y="1292" type="line"/>
      <point x="104" y="1292" type="line"/>
      <point x="104" y="1210" type="line"/>
      <point x="277" y="1192" type="line"/>
      <point x="146" y="98" type="line"/>
      <point x="6" y="80" type="line"/>
      <point x="6" y="0" type="line"/>
      <point x="427" y="0" type="line"/>
      <point x="427" y="80" type="line"/>
      <point x="271" y="98" type="line"/>
      <point x="342" y="884" type="line"/>
      <point x="371" y="1226" type="line"/>
      <point x="466" y="894" type="line"/>
      <point x="753" y="-14" type="line"/>
      <point x="846" y="-14" type="line"/>
      <point x="1133" y="994" type="line"/>
      <point x="1188" y="1224" type="line"/>
      <point x="1229" y="884" type="line"/>
      <point x="1314" y="98" type="line"/>
      <point x="1170" y="80" type="line"/>
      <point x="1170" y="0" type="line"/>
      <point x="1514" y="0" type="line"/>
      <point x="1508" y="-16"/>
      <point x="1446" y="-304"/>
      <point x="1440" y="-320" type="curve"/>
      <point x="1543" y="-320" type="line"/>
      <point x="1553" y="-304"/>
      <point x="1637" y="-22"/>
    </contour>
    <contour>
      <point x="769" y="-144" type="move" name="mark0"/>
    </contour>
  </outline>
</glyph>
<glyph name="enghe-cy.sc" format="1">
  <advance width="1628"/>
  <outline>
    <contour>
      <point x="88" y="1292" type="line"/>
      <point x="88" y="1210" type="line"/>
      <point x="223" y="1192" type="line"/>
      <point x="223" y="96" type="line"/>
      <point x="82" y="80" type="line"/>
      <point x="82" y="0" type="line"/>
      <point x="533" y="0" type="line"/>
      <point x="533" y="80" type="line"/>
      <point x="383" y="98" type="line"/>
      <point x="383" y="612" type="line"/>
      <point x="970" y="612" type="line"/>
      <point x="970" y="98" type="line"/>
      <point x="829" y="80" type="line"/>
      <point x="829" y="0" type="line"/>
      <point x="1269" y="0" type="line"/>
      <point x="1269" y="80" type="line"/>
      <point x="1132" y="98" type="line"/>
      <point x="1132" y="1208" type="line"/>
      <point x="1410" y="1188" type="line"/>
      <point x="1456" y="866" type="line"/>
      <point x="1566" y="866" type="line"/>
      <point x="1547" y="1292" type="line"/>
      <point x="828" y="1292" type="line"/>
      <point x="828" y="1210" type="line"/>
      <point x="970" y="1192" type="line"/>
      <point x="970" y="714" type="line"/>
      <point x="383" y="714" type="line"/>
      <point x="383" y="1192" type="line"/>
      <point x="533" y="1210" type="line"/>
      <point x="533" y="1292" type="line"/>
    </contour>
  </outline>
</glyph>
<glyph name="ge-cy.sc" format="1">
  <advance width="936"/>
  <outline>
    <contour>
      <point x="55" y="1292" type="line"/>
      <point x="55" y="1212" type="line"/>
      <point x="227" y="1190" type="line"/>
      <point x="227" y="98" type="line"/>
      <point x="49" y="80" type="line"/>
      <point x="49" y="0" type="line"/>
      <point x="677" y="0" type="line"/>
      <point x="677" y="80" type="line"/>
      <point x="392" y="98" type="line"/>
      <point x="392" y="1208" type="line"/>
      <point x="760" y="1196" type="line"/>
      <point x="804" y="844" type="line"/>
      <point x="908" y="844" type="line"/>
      <point x="898" y="1292" type="line"/>
    </contour>
    <contour>
      <point x="260" y="0" type="move" name="bottomright"/>
    </contour>
    <contour>
      <point x="470" y="648" type="move" name="center"/>
    </contour>
    <contour>
      <point x="577" y="1272" type="move" name="top"/>
    </contour>
  </outline>
</glyph>
<glyph name="iishorttail-cy.sc" format="1">
  <advance width="1376"/>
  <outline>
    <contour>
      <point x="1316" y="0" type="curve"/>
      <point x="1316" y="96" type="line"/>
      <point x="1129" y="96" type="line"/>
      <point x="1116" y="0" type="line"/>
      <point x="1177" y="0" type="line"/>
      <point x="1167" y="-46"/>
      <point x="1111" y="-298"/>
      <point x="1101" y="-320" type="curve"/>
      <point x="1207" y="-320" type="line"/>
      <point x="1217" y="-300"/>
      <point x="1306" y="-12"/>
    </contour>
    <contour>
      <point x="500" y="1856" type="curve" smooth="yes"/>
      <point x="387" y="1856" type="line"/>
      <point x="387" y="1844"/>
      <point x="385" y="1832"/>
      <point x="385" y="1822" type="curve" smooth="yes"/>
      <point x="385" y="1616"/>
      <point x="499" y="1464"/>
      <point x="703" y="1464" type="curve" smooth="yes"/>
      <point x="910" y="1464"/>
      <point x="1017" y="1614"/>
      <point x="1017" y="1822" type="curve" smooth="yes"/>
      <point x="1017" y="1832"/>
      <point x="1016" y="1844"/>
      <point x="1015" y="1856" type="curve"/>
      <point x="902" y="1856" type="line" smooth="yes"/>
      <point x="880" y="1856"/>
      <point x="876" y="1822"/>
      <point x="876" y="1788" type="curve" smooth="yes"/>
      <point x="876" y="1682"/>
      <point x="836" y="1560"/>
      <point x="704" y="1560" type="curve" smooth="yes"/>
      <point x="569" y="1560"/>
      <point x="526" y="1682"/>
      <point x="526" y="1788" type="curve" smooth="yes"/>
      <point x="526" y="1822"/>
      <point x="522" y="1856"/>
    </contour>
    <contour>
      <point x="92" y="1292" type="line"/>
      <point x="92" y="1210" type="line"/>
      <point x="221" y="1192" type="line"/>
      <point x="221" y="96" type="line"/>
      <point x="86" y="80" type="line"/>
      <point x="86" y="0" type="line"/>
      <point x="532" y="0" type="line"/>
      <point x="532" y="80" type="line"/>
      <point x="380" y="98" type="line"/>
      <point x="380" y="162" type="line"/>
      <point x="870" y="802" type="line"/>
      <point x="994" y="1002" type="line"/>
      <point x="994" y="98" type="line"/>
      <point x="851" y="80" type="line"/>
      <point x="851" y="0" type="line"/>
      <point x="1292" y="0" type="line"/>
      <point x="1292" y="80" type="line"/>
      <point x="1154" y="98" type="line"/>
      <point x="1154" y="1192" type="line"/>
      <point x="1284" y="1210" type="line"/>
      <point x="1284" y="1292" type="line"/>
      <point x="851" y="1292" type="line"/>
      <point x="851" y="1210" type="line"/>
      <point x="994" y="1192" type="line"/>
      <point x="994" y="1142" type="line"/>
      <point x="519" y="512" type="line"/>
      <point x="380" y="300" type="line"/>
      <point x="380" y="1192" type="line"/>
      <point x="539" y="1212" type="line"/>
      <point x="539" y="1292" type="line"/>
    </contour>
    <contour>
      <point x="1157" y="0" type="move" name="bottomright"/>
    </contour>
  </outline>
</glyph>
<glyph name="imacron-cy.sc" format="1">
  <advance width="1374"/>
  <outline>
    <contour>
      <point x="930" y="1626" type="line"/>
      <point x="477" y="1626" type="line"/>
      <point x="477" y="1504" type="line"/>
      <point x="930" y="1504" type="line"/>
    </contour>
    <contour>
      <point x="92" y="1292" type="line"/>
      <point x="92" y="1210" type="line"/>
      <point x="221" y="1192" type="line"/>
      <point x="221" y="96" type="line"/>
      <point x="86" y="80" type="line"/>
      <point x="86" y="0" type="line"/>
      <point x="532" y="0" type="line"/>
      <point x="532" y="80" type="line"/>
      <point x="380" y="98" type="line"/>
      <point x="380" y="162" type="line"/>
      <point x="870" y="802" type="line"/>
      <point x="994" y="1002" type="line"/>
      <point x="994" y="98" type="line"/>
      <point x="851" y="80" type="line"/>
      <point x="851" y="0" type="line"/>
      <point x="1292" y="0" type="line"/>
      <point x="1292" y="80" type="line"/>
      <point x="1154" y="98" type="line"/>
      <point x="1154" y="1192" type="line"/>
      <point x="1284" y="1210" type="line"/>
      <point x="1284" y="1292" type="line"/>
      <point x="851" y="1292" type="line"/>
      <point x="851" y="1210" type="line"/>
      <point x="994" y="1192" type="line"/>
      <point x="994" y="1142" type="line"/>
      <point x="519" y="512" type="line"/>
      <point x="380" y="300" type="line"/>
      <point x="380" y="1192" type="line"/>
      <point x="539" y="1212" type="line"/>
      <point x="539" y="1292" type="line"/>
    </contour>
  </outline>
</glyph>
<glyph name="iu-cy.sc" format="1">
  <advance width="1744"/>
  <outline>
    <contour>
      <point x="650" y="714" type="curve"/>
      <point x="379" y="714" type="line"/>
      <point x="379" y="1192" type="line"/>
      <point x="515" y="1210" type="line"/>
      <point x="515" y="1292" type="line"/>
      <point x="90" y="1292" type="line"/>
      <point x="90" y="1210" type="line"/>
      <point x="220" y="1192" type="line"/>
      <point x="220" y="98" type="line"/>
      <point x="85" y="80" type="line"/>
      <point x="85" y="0" type="line"/>
      <point x="521" y="0" type="line"/>
      <point x="521" y="80" type="line"/>
      <point x="380" y="98" type="line"/>
      <point x="380" y="618" type="line"/>
      <point x="646" y="618" type="line"/>
      <point x="646" y="238"/>
      <point x="833" y="-16"/>
      <point x="1160" y="-16" type="curve" smooth="yes"/>
      <point x="1448" y="-16"/>
      <point x="1675" y="236"/>
      <point x="1681" y="660" type="curve" smooth="yes"/>
      <point x="1687" y="1040"/>
      <point x="1505" y="1308"/>
      <point x="1182" y="1308" type="curve" smooth="yes"/>
      <point x="919" y="1308"/>
      <point x="684" y="1090"/>
    </contour>
    <contour>
      <point x="1172" y="1216" type="curve" smooth="yes"/>
      <point x="1386" y="1216"/>
      <point x="1505" y="984"/>
      <point x="1505" y="660" type="curve" smooth="yes"/>
      <point x="1505" y="268"/>
      <point x="1376" y="78"/>
      <point x="1170" y="78" type="curve" smooth="yes"/>
      <point x="945" y="78"/>
      <point x="821" y="314"/>
      <point x="821" y="634" type="curve" smooth="yes"/>
      <point x="821" y="1038"/>
      <point x="971" y="1216"/>
    </contour>
  </outline>
</glyph>
<glyph name="je-cy.sc" format="1">
  <advance width="622"/>
  <outline>
    <contour>
      <point x="-4" y="-238" type="curve"/>
      <point x="37" y="-306" type="line"/>
      <point x="200" y="-276"/>
      <point x="348" y="-154"/>
      <point x="385" y="30" type="curve" smooth="yes"/>
      <point x="406" y="138"/>
      <point x="403" y="264"/>
      <point x="403" y="478" type="curve" smooth="yes"/>
      <point x="403" y="1190" type="line"/>
      <point x="555" y="1210" type="line"/>
      <point x="555" y="1292" type="line"/>
      <point x="83" y="1292" type="line"/>
      <point x="83" y="1210" type="line"/>
      <point x="240" y="1190" type="line"/>
      <point x="240" y="424" type="line" smooth="yes"/>
      <point x="240" y="200"/>
      <point x="239" y="92"/>
      <point x="208" y="-16" type="curve" smooth="yes"/>
      <point x="173" y="-132"/>
      <point x="87" y="-210"/>
    </contour>
    <contour>
      <point x="243" y="-144" type="move" name="mark0"/>
    </contour>
    <contour>
      <point x="318" y="1272" type="move" name="top"/>
    </contour>
  </outline>
</glyph>
<glyph name="kahook-cy.sc" format="1">
  <advance width="1150"/>
  <outline>
    <contour>
      <point x="377" y="678" type="curve"/>
      <point x="377" y="1192" type="line"/>
      <point x="511" y="1210" type="line"/>
      <point x="511" y="1292" type="line"/>
      <point x="87" y="1292" type="line"/>
      <point x="87" y="1210" type="line"/>
      <point x="218" y="1192" type="line"/>
      <point x="218" y="98" type="line"/>
      <point x="87" y="82" type="line"/>
      <point x="87" y="0" type="line"/>
      <point x="520" y="0" type="line"/>
      <point x="520" y="80" type="line"/>
      <point x="377" y="98" type="line"/>
      <point x="377" y="588" type="line"/>
      <point x="456" y="612"/>
      <point x="511" y="634"/>
      <point x="615" y="634" type="curve" smooth="yes"/>
      <point x="794" y="634"/>
      <point x="869" y="522"/>
      <point x="869" y="286" type="curve" smooth="yes"/>
      <point x="869" y="-78"/>
      <point x="785" y="-236"/>
      <point x="611" y="-236" type="curve" smooth="yes"/>
      <point x="578" y="-236"/>
      <point x="551" y="-234"/>
      <point x="538" y="-230" type="curve"/>
      <point x="540" y="-330" type="line"/>
      <point x="559" y="-340"/>
      <point x="609" y="-344"/>
      <point x="642" y="-344" type="curve" smooth="yes"/>
      <point x="888" y="-344"/>
      <point x="1033" y="-74"/>
      <point x="1033" y="304" type="curve" smooth="yes"/>
      <point x="1033" y="560"/>
      <point x="948" y="732"/>
      <point x="680" y="740" type="curve"/>
      <point x="984" y="1192" type="line"/>
      <point x="1110" y="1210" type="line"/>
      <point x="1110" y="1292" type="line"/>
      <point x="718" y="1292" type="line"/>
      <point x="718" y="1210" type="line"/>
      <point x="855" y="1192" type="line"/>
      <point x="555" y="730" type="line"/>
      <point x="494" y="718"/>
      <point x="423" y="696"/>
    </contour>
  </outline>
</glyph>
<glyph name="komisje-cy.sc" format="1">
  <advance width="1199"/>
  <outline>
    <contour>
      <point x="1046" y="290" type="curve" smooth="yes"/>
      <point x="1046" y="602" type="line"/>
      <point x="1165" y="622" type="line"/>
      <point x="1165" y="712" type="line"/>
      <point x="762" y="712" type="line"/>
      <point x="762" y="622" type="line"/>
      <point x="889" y="602" type="line"/>
      <point x="889" y="318" type="line" smooth="yes"/>
      <point x="889" y="158"/>
      <point x="834" y="78"/>
      <point x="668" y="78" type="curve" smooth="yes"/>
      <point x="390" y="78"/>
      <point x="244" y="376"/>
      <point x="244" y="668" type="curve" smooth="yes"/>
      <point x="244" y="1032"/>
      <point x="416" y="1216"/>
      <point x="659" y="1216" type="curve" smooth="yes"/>
      <point x="802" y="1216"/>
      <point x="878" y="1186"/>
      <point x="899" y="1166" type="curve"/>
      <point x="937" y="958" type="line"/>
      <point x="1042" y="958" type="line"/>
      <point x="1057" y="1254" type="line"/>
      <point x="1004" y="1266"/>
      <point x="843" y="1308"/>
      <point x="673" y="1308" type="curve" smooth="yes"/>
      <point x="333" y="1308"/>
      <point x="60" y="1052"/>
      <point x="60" y="630" type="curve" smooth="yes"/>
      <point x="60" y="276"/>
      <point x="296" y="-14"/>
      <point x="664" y="-14" type="curve" smooth="yes"/>
      <point x="905" y="-14"/>
      <point x="1046" y="100"/>
    </contour>
    <contour>
      <point x="614" y="-144" type="move" name="mark0"/>
    </contour>
  </outline>
</glyph>
<glyph name="nje-cy.sc" format="1">
  <advance width="1756"/>
  <outline>
    <contour>
      <point x="1294" y="738" type="curve" smooth="yes"/>
      <point x="1083" y="738" type="line"/>
      <point x="1083" y="1192" type="line"/>
      <point x="1223" y="1214" type="line"/>
      <point x="1223" y="1292" type="line"/>
      <point x="784" y="1292" type="line"/>
      <point x="784" y="1214" type="line"/>
      <point x="922" y="1192" type="line"/>
      <point x="922" y="712" type="line"/>
      <point x="380" y="712" type="line"/>
      <point x="380" y="1192" type="line"/>
      <point x="520" y="1210" type="line"/>
      <point x="520" y="1292" type="line"/>
      <point x="90" y="1292" type="line"/>
      <point x="90" y="1210" type="line"/>
      <point x="220" y="1192" type="line"/>
      <point x="220" y="96" type="line"/>
      <point x="80" y="80" type="line"/>
      <point x="80" y="0" type="line"/>
      <point x="532" y="0" type="line"/>
      <point x="532" y="82" type="line"/>
      <point x="380" y="98" type="line"/>
      <point x="380" y="614" type="line"/>
      <point x="922" y="614" type="line"/>
      <point x="922" y="98" type="line"/>
      <point x="790" y="82" type="line"/>
      <point x="790" y="0" type="line"/>
      <point x="979" y="0" type="line" smooth="yes"/>
      <point x="1045" y="0"/>
      <point x="1224" y="-18"/>
      <point x="1282" y="-18" type="curve" smooth="yes"/>
      <point x="1533" y="-18"/>
      <point x="1704" y="106"/>
      <point x="1704" y="382" type="curve" smooth="yes"/>
      <point x="1704" y="606"/>
      <point x="1556" y="738"/>
    </contour>
    <contour>
      <point x="1083" y="98" type="curve"/>
      <point x="1083" y="636" type="line"/>
      <point x="1250" y="636" type="line" smooth="yes"/>
      <point x="1425" y="636"/>
      <point x="1535" y="552"/>
      <point x="1535" y="370" type="curve" smooth="yes"/>
      <point x="1535" y="178"/>
      <point x="1431" y="76"/>
      <point x="1248" y="76" type="curve" smooth="yes"/>
      <point x="1176" y="76"/>
      <point x="1125" y="92"/>
    </contour>
    <contour>
      <point x="667" y="-144" type="move" name="mark0"/>
    </contour>
  </outline>
</glyph>
<glyph name="o-cy.sc" format="1">
  <advance width="1179"/>
  <outline>
    <contour>
      <point x="578" y="-20" type="curve" smooth="yes"/>
      <point x="885" y="-14"/>
      <point x="1119" y="252"/>
      <point x="1119" y="660" type="curve" smooth="yes"/>
      <point x="1119" y="1050"/>
      <point x="943" y="1308"/>
      <point x="604" y="1308" type="curve" smooth="yes"/>
      <point x="296" y="1308"/>
      <point x="60" y="1048"/>
      <point x="60" y="638" type="curve" smooth="yes"/>
      <point x="60" y="248"/>
      <point x="239" y="-26"/>
    </contour>
    <contour>
      <point x="591" y="1220" type="curve" smooth="yes"/>
      <point x="811" y="1220"/>
      <point x="937" y="1000"/>
      <point x="937" y="660" type="curve" smooth="yes"/>
      <point x="937" y="268"/>
      <point x="795" y="68"/>
      <point x="586" y="68" type="curve" smooth="yes"/>
      <point x="366" y="68"/>
      <point x="239" y="298"/>
      <point x="239" y="638" type="curve" smooth="yes"/>
      <point x="239" y="1030"/>
      <point x="382" y="1220"/>
    </contour>
    <contour>
      <point x="590" y="0" type="move" name="bottom"/>
    </contour>
    <contour>
      <point x="590" y="648" type="move" name="center"/>
    </contour>
    <contour>
      <point x="582" y="-144" type="move" name="mark0"/>
    </contour>
    <contour>
      <point x="1057" y="18" type="move" name="ogonek"/>
    </contour>
    <contour>
      <point x="590" y="1272" type="move" name="top"/>
    </contour>
    <contour>
      <point x="35" y="1292" type="move" name="topleft"/>
    </contour>
    <contour>
      <point x="884" y="1292" type="move" name="topright"/>
    </contour>
  </outline>
</glyph>
<glyph name="odieresis-cy.sc" format="1">
  <advance width="1179"/>
  <outline>
    <contour>
      <point x="767" y="1486" type="curve"/>
      <point x="844" y="1486"/>
      <point x="878" y="1546"/>
      <point x="878" y="1616" type="curve" smooth="yes"/>
      <point x="878" y="1674"/>
      <point x="845" y="1732"/>
      <point x="783" y="1732" type="curve" smooth="yes"/>
      <point x="712" y="1732"/>
      <point x="677" y="1666"/>
      <point x="677" y="1600" type="curve" smooth="yes"/>
      <point x="677" y="1536"/>
      <point x="712" y="1486"/>
    </contour>
    <contour>
      <point x="393" y="1486" type="curve" smooth="yes"/>
      <point x="469" y="1486"/>
      <point x="503" y="1546"/>
      <point x="503" y="1616" type="curve" smooth="yes"/>
      <point x="503" y="1674"/>
      <point x="470" y="1732"/>
      <point x="407" y="1732" type="curve"/>
      <point x="335" y="1732"/>
      <point x="301" y="1666"/>
      <point x="301" y="1600" type="curve" smooth="yes"/>
      <point x="301" y="1536"/>
      <point x="335" y="1486"/>
    </contour>
    <contour>
      <point x="578" y="-20" type="curve" smooth="yes"/>
      <point x="885" y="-14"/>
      <point x="1119" y="252"/>
      <point x="1119" y="660" type="curve" smooth="yes"/>
      <point x="1119" y="1050"/>
      <point x="943" y="1308"/>
      <point x="604" y="1308" type="curve" smooth="yes"/>
      <point x="296" y="1308"/>
      <point x="60" y="1048"/>
      <point x="60" y="638" type="curve" smooth="yes"/>
      <point x="60" y="248"/>
      <point x="239" y="-26"/>
    </contour>
    <contour>
      <point x="591" y="1220" type="curve" smooth="yes"/>
      <point x="811" y="1220"/>
      <point x="937" y="1000"/>
      <point x="937" y="660" type="curve" smooth="yes"/>
      <point x="937" y="268"/>
      <point x="795" y="68"/>
      <point x="586" y="68" type="curve" smooth="yes"/>
      <point x="366" y="68"/>
      <point x="239" y="298"/>
      <point x="239" y="638" type="curve" smooth="yes"/>
      <point x="239" y="1030"/>
      <point x="382" y="1220"/>
    </contour>
  </outline>
</glyph>
<glyph name="qa-cy.sc" format="1">
  <advance width="1186"/>
  <outline>
    <contour>
      <point x="1194" y="-318" type="curve" smooth="yes"/>
      <point x="1246" y="-318"/>
      <point x="1302" y="-298"/>
      <point x="1342" y="-258" type="curve"/>
      <point x="1324" y="-184" type="line"/>
      <point x="1312" y="-184"/>
      <point x="1301" y="-186"/>
      <point x="1276" y="-186" type="curve"/>
      <point x="1083" y="-186"/>
      <point x="1019" y="10"/>
      <point x="794" y="30" type="curve"/>
      <point x="991" y="126"/>
      <point x="1123" y="354"/>
      <point x="1123" y="660" type="curve" smooth="yes"/>
      <point x="1123" y="1050"/>
      <point x="948" y="1308"/>
      <point x="608" y="1308" type="curve" smooth="yes"/>
      <point x="300" y="1308"/>
      <point x="65" y="1048"/>
      <point x="65" y="638" type="curve" smooth="yes"/>
      <point x="65" y="248"/>
      <point x="244" y="-26"/>
      <point x="581" y="-20" type="curve" smooth="yes"/>
      <point x="614" y="-20"/>
      <point x="659" y="-14"/>
      <point x="689" y="-6" type="curve"/>
      <point x="893" y="-48"/>
      <point x="967" y="-318"/>
    </contour>
    <contour>
      <point x="591" y="68" type="curve" smooth="yes"/>
      <point x="371" y="68"/>
      <point x="244" y="298"/>
      <point x="244" y="638" type="curve" smooth="yes"/>
      <point x="244" y="1030"/>
      <point x="386" y="1220"/>
      <point x="596" y="1220" type="curve" smooth="yes"/>
      <point x="816" y="1220"/>
      <point x="941" y="1000"/>
      <point x="941" y="660" type="curve" smooth="yes"/>
      <point x="941" y="268"/>
      <point x="800" y="68"/>
    </contour>
    <contour>
      <point x="586" y="-144" type="move" name="mark0"/>
    </contour>
  </outline>
</glyph>
<glyph name="reversedze-cy.sc" format="1">
  <advance width="957"/>
  <outline>
    <contour>
      <point x="854" y="48" type="curve"/>
      <point x="890" y="288" type="line"/>
      <point x="798" y="300" type="line"/>
      <point x="731" y="130" type="line"/>
      <point x="693" y="96"/>
      <point x="612" y="68"/>
      <point x="530" y="68" type="curve" smooth="yes"/>
      <point x="366" y="68"/>
      <point x="273" y="162"/>
      <point x="273" y="346" type="curve" smooth="yes"/>
      <point x="273" y="468"/>
      <point x="326" y="620"/>
      <point x="546" y="620" type="curve"/>
      <point x="668" y="614" type="line"/>
      <point x="668" y="724" type="line"/>
      <point x="566" y="712" type="line"/>
      <point x="434" y="712"/>
      <point x="295" y="772"/>
      <point x="295" y="962" type="curve" smooth="yes"/>
      <point x="295" y="1124"/>
      <point x="383" y="1218"/>
      <point x="529" y="1218" type="curve" smooth="yes"/>
      <point x="627" y="1218"/>
      <point x="696" y="1186"/>
      <point x="720" y="1166" type="curve"/>
      <point x="751" y="966" type="line"/>
      <point x="849" y="966" type="line"/>
      <point x="863" y="1252" type="line"/>
      <point x="795" y="1268"/>
      <point x="640" y="1306"/>
      <point x="534" y="1306" type="curve" smooth="yes"/>
      <point x="275" y="1306"/>
      <point x="123" y="1182"/>
      <point x="123" y="976" type="curve" smooth="yes"/>
      <point x="123" y="780"/>
      <point x="266" y="698"/>
      <point x="403" y="670" type="curve"/>
      <point x="201" y="660"/>
      <point x="86" y="522"/>
      <point x="86" y="340" type="curve" smooth="yes"/>
      <point x="86" y="126"/>
      <point x="214" y="-20"/>
      <point x="522" y="-20" type="curve" smooth="yes"/>
      <point x="676" y="-20"/>
      <point x="771" y="44"/>
    </contour>
  </outline>
</glyph>
<glyph name="schwadieresis-cy.sc" format="1">
  <advance width="1080"/>
  <outline>
    <contour>
      <point x="711" y="1486" type="curve"/>
      <point x="788" y="1486"/>
      <point x="822" y="1546"/>
      <point x="822" y="1616" type="curve" smooth="yes"/>
      <point x="822" y="1674"/>
      <point x="789" y="1732"/>
      <point x="727" y="1732" type="curve" smooth="yes"/>
      <point x="656" y="1732"/>
      <point x="621" y="1666"/>
      <point x="621" y="1600" type="curve" smooth="yes"/>
      <point x="621" y="1536"/>
      <point x="656" y="1486"/>
    </contour>
    <contour>
      <point x="337" y="1486" type="curve" smooth="yes"/>
      <point x="412" y="1486"/>
      <point x="446" y="1546"/>
      <point x="446" y="1616" type="curve" smooth="yes"/>
      <point x="446" y="1674"/>
      <point x="414" y="1732"/>
      <point x="351" y="1732" type="curve"/>
      <point x="279" y="1732"/>
      <point x="245" y="1666"/>
      <point x="245" y="1600" type="curve" smooth="yes"/>
      <point x="245" y="1536"/>
      <point x="279" y="1486"/>
    </contour>
    <contour>
      <point x="495" y="-20" type="curve" smooth="yes"/>
      <point x="797" y="-20"/>
      <point x="1024" y="250"/>
      <point x="1024" y="654" type="curve" smooth="yes"/>
      <point x="1024" y="1048"/>
      <point x="829" y="1306"/>
      <point x="532" y="1306" type="curve" smooth="yes"/>
      <point x="307" y="1306"/>
      <point x="207" y="1244"/>
      <point x="117" y="1238" type="curve"/>
      <point x="109" y="984" type="line"/>
      <point x="215" y="984" type="line"/>
      <point x="244" y="1120" type="line"/>
      <point x="289" y="1164"/>
      <point x="355" y="1216"/>
      <point x="507" y="1216" type="curve" smooth="yes"/>
      <point x="707" y="1216"/>
      <point x="844" y="1010"/>
      <point x="857" y="670" type="curve"/>
      <point x="86" y="670" type="line"/>
      <point x="77" y="628"/>
      <point x="76" y="566"/>
      <point x="76" y="492" type="curve"/>
      <point x="84" y="162"/>
      <point x="252" y="-20"/>
    </contour>
    <contour>
      <point x="530" y="82" type="curve" smooth="yes"/>
      <point x="326" y="82"/>
      <point x="243" y="296"/>
      <point x="243" y="480" type="curve" smooth="yes"/>
      <point x="243" y="516"/>
      <point x="244" y="548"/>
      <point x="249" y="576" type="curve"/>
      <point x="858" y="576" type="line"/>
      <point x="850" y="226"/>
      <point x="713" y="82"/>
    </contour>
  </outline>
</glyph>
<glyph name="sha-cy.sc" format="1">
  <advance width="1778"/>
  <outline>
    <contour>
      <point x="85" y="1292" type="line"/>
      <point x="85" y="1210" type="line"/>
      <point x="221" y="1192" type="line"/>
      <point x="221" y="98" type="line"/>
      <point x="67" y="80" type="line"/>
      <point x="67" y="0" type="line"/>
      <point x="1709" y="0" type="line"/>
      <point x="1709" y="80" type="line"/>
      <point x="1556" y="98" type="line"/>
      <point x="1556" y="1192" type="line"/>
      <point x="1691" y="1210" type="line"/>
      <point x="1691" y="1292" type="line"/>
      <point x="1274" y="1292" type="line"/>
      <point x="1274" y="1210" type="line"/>
      <point x="1396" y="1192" type="line"/>
      <point x="1396" y="96" type="line"/>
      <point x="970" y="96" type="line"/>
      <point x="970" y="1192" type="line"/>
      <point x="1098" y="1210" type="line"/>
      <point x="1098" y="1292" type="line"/>
      <point x="690" y="1292" type="line"/>
      <point x="690" y="1210" type="line"/>
      <point x="814" y="1192" type="line"/>
      <point x="814" y="96" type="line"/>
      <point x="380" y="96" type="line"/>
      <point x="380" y="1190" type="line"/>
      <point x="528" y="1210" type="line"/>
      <point x="528" y="1292" type="line"/>
    </contour>
    <contour>
      <point x="620" y="-144" type="move" name="mark0"/>
    </contour>
  </outline>
</glyph>
<glyph name="shhadescender-cy.sc" format="1">
  <advance width="1235"/>
  <outline>
    <contour>
      <point x="68" y="0" type="line"/>
      <point x="518" y="0" type="line"/>
      <point x="518" y="82" type="line"/>
      <point x="373" y="102" type="line"/>
      <point x="373" y="626" type="line"/>
      <point x="417" y="654"/>
      <point x="528" y="682"/>
      <point x="615" y="682" type="curve" smooth="yes"/>
      <point x="818" y="682"/>
      <point x="841" y="628"/>
      <point x="841" y="346" type="curve" smooth="yes"/>
      <point x="841" y="104" type="line"/>
      <point x="701" y="84" type="line"/>
      <point x="701" y="0" type="line"/>
      <point x="1026" y="0" type="line"/>
      <point x="1032" y="-20"/>
      <point x="1048" y="-288"/>
      <point x="1048" y="-320" type="curve"/>
      <point x="1148" y="-320" type="line"/>
      <point x="1151" y="-312"/>
      <point x="1190" y="86"/>
      <point x="1190" y="98" type="curve"/>
      <point x="1003" y="104" type="line"/>
      <point x="1003" y="396" type="line"/>
      <point x="1003" y="694"/>
      <point x="912" y="792"/>
      <point x="690" y="792" type="curve" smooth="yes"/>
      <point x="594" y="792"/>
      <point x="454" y="768"/>
      <point x="373" y="720" type="curve"/>
      <point x="373" y="1196" type="line"/>
      <point x="542" y="1212" type="line"/>
      <point x="542" y="1292" type="line"/>
      <point x="67" y="1292" type="line"/>
      <point x="67" y="1214" type="line"/>
      <point x="212" y="1196" type="line"/>
      <point x="212" y="102" type="line"/>
      <point x="68" y="82" type="line"/>
    </contour>
    <contour>
      <point x="596" y="0" type="move" name="bottom"/>
    </contour>
    <contour>
      <point x="552" y="646" type="move" name="center"/>
    </contour>
    <contour>
      <point x="27" y="1292" type="move" name="topleft"/>
    </contour>
  </outline>
</glyph>
<glyph name="tetse-cy.sc" format="1">
  <advance width="1589"/>
  <outline>
    <contour>
      <point x="1561" y="98" type="curve"/>
      <point x="1352" y="98" type="line"/>
      <point x="1352" y="1192" type="line"/>
      <point x="1484" y="1210" type="line"/>
      <point x="1484" y="1292" type="line"/>
      <point x="1065" y="1292" type="line"/>
      <point x="1065" y="1210" type="line"/>
      <point x="1191" y="1192" type="line"/>
      <point x="1191" y="96" type="line"/>
      <point x="571" y="96" type="line"/>
      <point x="571" y="1202" type="line"/>
      <point x="778" y="1192" type="line"/>
      <point x="825" y="862" type="line"/>
      <point x="923" y="862" type="line"/>
      <point x="905" y="1292" type="line"/>
      <point x="74" y="1292" type="line"/>
      <point x="55" y="862" type="line"/>
      <point x="155" y="862" type="line"/>
      <point x="201" y="1192" type="line"/>
      <point x="411" y="1202" type="line"/>
      <point x="411" y="96" type="line"/>
      <point x="273" y="80" type="line"/>
      <point x="273" y="0" type="line"/>
      <point x="1396" y="0" type="line"/>
      <point x="1400" y="-16"/>
      <point x="1417" y="-274"/>
      <point x="1417" y="-314" type="curve"/>
      <point x="1517" y="-314" type="line"/>
      <point x="1530" y="-192"/>
      <point x="1547" y="-34"/>
    </contour>
  </outline>
</glyph>
<glyph name="tshe-cy.sc" format="1">
  <advance width="1412"/>
  <outline>
    <contour>
      <point x="667" y="660" type="curve"/>
      <point x="667" y="1206" type="line"/>
      <point x="997" y="1192" type="line"/>
      <point x="1034" y="884" type="line"/>
      <point x="1133" y="884" type="line"/>
      <point x="1129" y="1292" type="line"/>
      <point x="82" y="1292" type="line"/>
      <point x="62" y="884" type="line"/>
      <point x="163" y="884" type="line"/>
      <point x="210" y="1192" type="line"/>
      <point x="504" y="1206" type="line"/>
      <point x="504" y="98" type="line"/>
      <point x="289" y="80" type="line"/>
      <point x="289" y="0" type="line"/>
      <point x="827" y="0" type="line"/>
      <point x="827" y="80" type="line"/>
      <point x="667" y="98" type="line"/>
      <point x="667" y="570" type="line"/>
      <point x="713" y="602"/>
      <point x="798" y="634"/>
      <point x="919" y="634" type="curve" smooth="yes"/>
      <point x="1101" y="634"/>
      <point x="1125" y="492"/>
      <point x="1125" y="304" type="curve" smooth="yes"/>
      <point x="1125" y="96" type="line"/>
      <point x="1004" y="80" type="line"/>
      <point x="1004" y="0" type="line"/>
      <point x="1411" y="0" type="line"/>
      <point x="1411" y="80" type="line"/>
      <point x="1285" y="96" type="line"/>
      <point x="1285" y="358" type="line" smooth="yes"/>
      <point x="1285" y="616"/>
      <point x="1213" y="742"/>
      <point x="953" y="742" type="curve" smooth="yes"/>
      <point x="867" y="742"/>
      <point x="735" y="706"/>
    </contour>
    <contour>
      <point x="562" y="-144" type="move" name="mark0"/>
    </contour>
  </outline>
</glyph>
<glyph name="zhedieresis-cy.sc" format="1">
  <advance width="1692"/>
  <outline>
    <contour>
      <point x="1024" y="1486" type="curve"/>
      <point x="1101" y="1486"/>
      <point x="1135" y="1546"/>
      <point x="1135" y="1616" type="curve" smooth="yes"/>
      <point x="1135" y="1674"/>
      <point x="1102" y="1732"/>
      <point x="1039" y="1732" type="curve" smooth="yes"/>
      <point x="968" y="1732"/>
      <point x="933" y="1666"/>
      <point x="933" y="1600" type="curve" smooth="yes"/>
      <point x="933" y="1536"/>
      <point x="968" y="1486"/>
    </contour>
    <contour>
      <point x="649" y="1486" type="curve" smooth="yes"/>
      <point x="725" y="1486"/>
      <point x="759" y="1546"/>
      <point x="759" y="1616" type="curve" smooth="yes"/>
      <point x="759" y="1674"/>
      <point x="726" y="1732"/>
      <point x="663" y="1732" type="curve"/>
      <point x="591" y="1732"/>
      <point x="558" y="1666"/>
      <point x="558" y="1600" type="curve" smooth="yes"/>
      <point x="558" y="1536"/>
      <point x="591" y="1486"/>
    </contour>
    <contour>
      <point x="1171" y="668" type="curve"/>
      <point x="1527" y="1192" type="line"/>
      <point x="1655" y="1210" type="line"/>
      <point x="1655" y="1292" type="line"/>
      <point x="1266" y="1292" type="line"/>
      <point x="1266" y="1210" type="line"/>
      <point x="1394" y="1190" type="line"/>
      <point x="1068" y="680" type="line"/>
      <point x="924" y="680" type="line"/>
      <point x="924" y="1192" type="line"/>
      <point x="1063" y="1210" type="line"/>
      <point x="1063" y="1292" type="line"/>
      <point x="634" y="1292" type="line"/>
      <point x="634" y="1210" type="line"/>
      <point x="770" y="1192" type="line"/>
      <point x="770" y="680" type="line"/>
      <point x="625" y="680" type="line"/>
      <point x="296" y="1192" type="line"/>
      <point x="426" y="1210" type="line"/>
      <point x="426" y="1292" type="line"/>
      <point x="38" y="1292" type="line"/>
      <point x="38" y="1210" type="line"/>
      <point x="164" y="1192" type="line"/>
      <point x="520" y="672" type="line"/>
      <point x="355" y="600"/>
      <point x="169" y="122"/>
      <point x="81" y="98" type="curve" smooth="yes"/>
      <point x="16" y="80" type="line"/>
      <point x="16" y="0" type="line"/>
      <point x="200" y="0" type="line" smooth="yes"/>
      <point x="316" y="0"/>
      <point x="523" y="600"/>
      <point x="661" y="600" type="curve" smooth="yes"/>
      <point x="770" y="600" type="line"/>
      <point x="770" y="98" type="line"/>
      <point x="632" y="80" type="line"/>
      <point x="632" y="0" type="line"/>
      <point x="1066" y="0" type="line"/>
      <point x="1066" y="80" type="line"/>
      <point x="924" y="98" type="line"/>
      <point x="924" y="600" type="line"/>
      <point x="1031" y="600" type="line" smooth="yes"/>
      <point x="1170" y="600"/>
      <point x="1374" y="0"/>
      <point x="1490" y="0" type="curve"/>
      <point x="1677" y="0" type="line"/>
      <point x="1677" y="80" type="line"/>
      <point x="1611" y="98" type="line" smooth="yes"/>
      <point x="1522" y="122"/>
      <point x="1336" y="596"/>
    </contour>
  </outline>
</glyph>
